<svg xmlns="http://www.w3.org/2000/svg" width="24" height="12.625" viewBox="0 0 24 12.625">
  <path id="php" d="M7.01,10.207H6.066l-.515,2.648h.838a2.028,2.028,0,0,0,1.242-.314,1.668,1.668,0,0,0,.55-1.049,1.147,1.147,0,0,0-.124-.995A1.411,1.411,0,0,0,7.01,10.207ZM12,5.688C5.373,5.688,0,8.514,0,12s5.373,6.313,12,6.313S24,15.486,24,12,18.627,5.688,12,5.688ZM8.74,13.139a2.427,2.427,0,0,1-.917.551,4.273,4.273,0,0,1-1.285.164H5.357L5.03,15.535H3.652l1.23-6.326h2.65a2.2,2.2,0,0,1,1.744.628,1.966,1.966,0,0,1,.33,1.752,2.757,2.757,0,0,1-.866,1.55Zm4.024.715.543-2.8a.756.756,0,0,0-.068-.651.96.96,0,0,0-.687-.174H11.46l-.7,3.625H9.388l1.23-6.327h1.367L11.658,9.21h1.218a2.372,2.372,0,0,1,1.586.4,1.328,1.328,0,0,1,.263,1.3l-.572,2.944Zm7.6-2.265a2.782,2.782,0,0,1-.3.847,2.856,2.856,0,0,1-.561.7,2.44,2.44,0,0,1-.917.551,4.275,4.275,0,0,1-1.286.164h-1.18l-.327,1.682H14.407l1.23-6.326h2.649a2.2,2.2,0,0,1,1.744.628,1.964,1.964,0,0,1,.331,1.751Zm-2.595-1.382h-.943l-.516,2.648h.838a2.024,2.024,0,0,0,1.242-.314,1.673,1.673,0,0,0,.551-1.049,1.146,1.146,0,0,0-.125-.995,1.411,1.411,0,0,0-1.047-.29Z" transform="translate(0 -5.688)" fill="#000b29"/>
</svg>
