<svg xmlns="http://www.w3.org/2000/svg" width="24" height="23.4" viewBox="0 0 24 23.4">
  <path id="adobexd" d="M19.75.3H4.25A4.246,4.246,0,0,0,0,4.55v14.9A4.246,4.246,0,0,0,4.25,23.7h15.5A4.246,4.246,0,0,0,24,19.45V4.55A4.246,4.246,0,0,0,19.75.3Zm3.24,18.76a3.623,3.623,0,0,1-3.62,3.64H4.63A3.636,3.636,0,0,1,1,19.07V4.93A3.636,3.636,0,0,1,4.63,1.3H19.36a3.63,3.63,0,0,1,3.63,3.63V19.06ZM9.49,11.25l2.8,5.38c.05.08.02.16-.06.16H10.49a.2.2,0,0,1-.21-.13c-.64-1.32-1.29-2.64-1.96-4.06H8.3c-.6,1.34-1.26,2.75-1.9,4.07a.192.192,0,0,1-.18.11H4.57c-.1,0-.11-.08-.06-.14l2.74-5.22L4.6,6.14A.081.081,0,0,1,4.66,6H6.38a.157.157,0,0,1,.18.11c.63,1.32,1.27,2.68,1.87,4.01h.02c.58-1.32,1.22-2.69,1.84-4,.05-.08.08-.13.18-.13h1.61c.08,0,.11.06.06.14L9.49,11.25Zm3.29,1.63a3.912,3.912,0,0,1,4.01-4.15,4.434,4.434,0,0,1,.52.02V6.1a.1.1,0,0,1,.1-.1h1.58c.08,0,.1.03.1.08v9.18a7.123,7.123,0,0,0,.05.98c0,.06-.02.08-.08.11a5.957,5.957,0,0,1-2.56.58c-2.17.01-3.72-1.33-3.72-4.05Zm4.53-2.56a1.512,1.512,0,0,0-.58-.1c-1.26,0-2.14.97-2.14,2.58,0,1.84.9,2.58,2.03,2.58a1.887,1.887,0,0,0,.69-.11Z" transform="translate(0 -0.3)" fill="#000b29"/>
</svg>
