<svg xmlns="http://www.w3.org/2000/svg" width="23.94" height="24.001" viewBox="0 0 23.94 24.001">
  <path id="json" d="M12.043,23.968a11.124,11.124,0,0,0,1.426-.094,11.8,11.8,0,0,0,3.146-.863,12.4,12.4,0,0,0,3.793-2.543,11.978,11.978,0,0,0,2.44-3.427,11.8,11.8,0,0,0,1.02-3.476,12.466,12.466,0,0,0-.045-3.5,11.961,11.961,0,0,0-.793-2.788,11.2,11.2,0,0,0-.854-1.617,12.24,12.24,0,0,0-4.81-4.3A12.835,12.835,0,0,0,15.194.491h-.005c.119.063.24.132.345.2s.239.146.351.225a8.93,8.93,0,0,1,1.559,1.33,9.837,9.837,0,0,1,2.218,4.041,13.826,13.826,0,0,1,.5,3.017,12.291,12.291,0,0,1-.047,2.229,8.756,8.756,0,0,1-1.228,3.6,7.475,7.475,0,0,1-1.9,2.084,5.478,5.478,0,0,1-4.436,1.114,3.916,3.916,0,0,1-.748-.258,4.692,4.692,0,0,1-.779-.449,6.079,6.079,0,0,1-1.244-1.106,6.507,6.507,0,0,1-1.049-1.747,7.367,7.367,0,0,1-.494-2.54,7.116,7.116,0,0,1,.854-3.67A6.431,6.431,0,0,1,10.746,6.64a6.933,6.933,0,0,1,.7-.479l.016-.007a5.121,5.121,0,0,0-1.441-.12A4.962,4.962,0,0,0,8.8,6.273a5.778,5.778,0,0,0-1.019.45,6.146,6.146,0,0,0-.733.495c-.211.18-.42.359-.615.555a7.846,7.846,0,0,0-2.022,4.256,13.913,13.913,0,0,0-.091,2.951,12.568,12.568,0,0,0,.945,4.061A8.519,8.519,0,0,0,6.61,21.214a8.141,8.141,0,0,0,3.132,2.231,7.934,7.934,0,0,0,2.113.54,1.048,1.048,0,0,0,.209.015l-.021-.032Zm-2.934-.4a4.1,4.1,0,0,1-.45-.228c-.149-.083-.3-.168-.449-.259a8.5,8.5,0,0,1-1.589-1.275,9.519,9.519,0,0,1-2.247-4.081,15.186,15.186,0,0,1-.495-3.172,12.142,12.142,0,0,1,.046-2.082,9.044,9.044,0,0,1,1.124-3.58A6.889,6.889,0,0,1,6.832,6.84a6.23,6.23,0,0,1,1.633-.9,5.363,5.363,0,0,1,2.563-.27,5.06,5.06,0,0,1,.959.225c.029,0,.029,0,.045.03.015.015.045.015.06.03.045.016.1.045.165.074a6.989,6.989,0,0,1,.7.42,6.294,6.294,0,0,1,2.1,2.5,7.35,7.35,0,0,1,.631,2.938,7.146,7.146,0,0,1-.645,3.146,6.421,6.421,0,0,1-2.638,2.832c.09.03.18.045.271.075a3.536,3.536,0,0,0,.688.074,5.661,5.661,0,0,0,3.94-1.647,4.992,4.992,0,0,0,.54-.585,7.776,7.776,0,0,0,.614-.823,8.566,8.566,0,0,0,.614-1.154,8.113,8.113,0,0,0,.509-1.664,11.922,11.922,0,0,0,.149-3.026,11.268,11.268,0,0,0-1.842-5.724,9.055,9.055,0,0,0-.555-.719A9.868,9.868,0,0,0,16.271,1.64,8.477,8.477,0,0,0,14.908.725a9.927,9.927,0,0,0-1.692-.6l-.3-.06c-.209-.03-.42-.044-.634-.06a8.453,8.453,0,0,0-1.015.016A11.665,11.665,0,0,0,9.155.36,12.338,12.338,0,0,0,1.3,6.668,11.876,11.876,0,0,0,.134,13.575a10.883,10.883,0,0,0,.778,2.977A11.526,11.526,0,0,0,1.737,18.2a12.142,12.142,0,0,0,4.51,4.24,12.43,12.43,0,0,0,2.157.945c.226.074.45.149.689.209Z" transform="translate(-0.03 0.001)" fill="#000b29"/>
</svg>
